<svg width="551" height="413" viewBox="0 0 551 413" fill="none" xmlns="http://www.w3.org/2000/svg">
<g clip-path="url(#clip0_70_6)">
<path d="M0.00012207 411.255C0.00012207 411.915 0.530155 412.445 1.19012 412.445H549.41C550.07 412.445 550.6 411.915 550.6 411.255C550.6 410.595 550.07 410.065 549.41 410.065H1.19012C0.530155 410.065 0.00012207 410.595 0.00012207 411.255Z" fill="#2E2E43"/>
<path d="M113.941 84.7844H436.524C440.983 84.7844 444.61 81.1571 444.61 76.6985V51.8458C444.61 47.3873 440.983 43.7599 436.524 43.7599H113.941C109.483 43.7599 105.855 47.3873 105.855 51.8458V76.6985C105.855 81.1571 109.483 84.7844 113.941 84.7844Z" fill="white" stroke="#BAB7C9" stroke-width="2" stroke-linecap="round" stroke-linejoin="round"/>
<path d="M113.941 237.99H436.524C440.983 237.99 444.61 234.363 444.61 229.904V205.052C444.61 200.593 440.983 196.966 436.524 196.966H113.941C109.483 196.966 105.855 200.593 105.855 205.052V229.904C105.855 234.363 109.483 237.99 113.941 237.99Z" fill="white" stroke="#BAB7C9" stroke-width="2" stroke-linecap="round" stroke-linejoin="round"/>
<path d="M342.941 347.99H437.524C441.983 347.99 445.61 344.363 445.61 339.904V315.052C445.61 310.593 441.983 306.966 437.524 306.966H342.941C338.483 306.966 334.855 310.593 334.855 315.052V339.904C334.855 344.363 338.483 347.99 342.941 347.99Z" fill="#24AE97"/>
<path d="M443.902 1H373.152" stroke="#BAB7C9" stroke-width="2" stroke-linecap="round" stroke-linejoin="round"/>
<path d="M443.902 154.206H312.477" stroke="#BAB7C9" stroke-width="2" stroke-linecap="round" stroke-linejoin="round"/>
<path d="M152.969 367.241L164.094 374.353L154.006 390.134L142.88 383.022L152.969 367.241Z" fill="#F1A1A4"/>
<path d="M188.252 155.102L202.306 159.901L202.527 139.608L189.737 139.465L188.252 155.102Z" fill="#F1A1A4"/>
<path d="M200.886 145.211C193.124 145.211 186.832 138.919 186.832 131.157C186.832 123.396 193.124 117.103 200.886 117.103C208.648 117.103 214.94 123.396 214.94 131.157C214.94 138.919 208.648 145.211 200.886 145.211Z" fill="#F1A1A4"/>
<path d="M197.04 129.724C199.388 129.679 200.964 127.324 201.904 125.158C202.845 123.005 203.811 120.515 205.997 119.639C207.787 118.926 210.874 123.907 212.301 122.61C213.786 121.254 212.43 114.172 210.88 112.894C209.33 111.617 207.203 111.344 205.206 111.221C200.309 110.942 195.386 111.279 190.574 112.233C187.604 112.816 184.53 113.718 182.37 115.839C179.627 118.53 178.887 122.629 178.654 126.462C178.407 130.386 178.596 134.497 180.463 137.961C182.338 141.417 186.3 143.992 190.146 143.162C190.555 141.08 190.192 138.946 190.062 136.819C189.932 134.705 190.12 132.422 191.43 130.749C192.74 129.076 195.503 128.44 196.988 129.951" fill="#2F2E43"/>
<path d="M179.698 134.4C178.304 133.356 176.637 132.474 174.905 132.669C173.031 132.87 171.435 134.4 170.936 136.216C170.437 138.032 170.956 140.043 172.091 141.547C173.225 143.052 174.931 144.051 176.747 144.563C177.798 144.861 178.946 144.985 179.957 144.563C181.443 143.94 182.26 142.066 181.696 140.555" fill="#2F2E43"/>
<path d="M231.997 267.171C232.879 271.795 231.121 275.998 228.06 276.549C225.006 277.1 221.808 273.793 220.92 269.169C220.537 267.327 220.621 265.42 221.166 263.611L210.355 191.129L224.921 188.56L229.714 262.08C230.888 263.585 231.673 265.329 231.997 267.191L231.997 267.171Z" fill="#F1A1A4"/>
<path d="M202.566 150.588L212.488 150.698C219.493 151.833 221.354 155.601 222.865 162.528C225.181 173.093 228.138 187.173 227.515 187.367C226.523 187.691 209.551 195.448 200.957 193.528L202.559 150.588L202.566 150.588Z" fill="#24AE97"/>
<path d="M190.379 380.961L203.583 381.108L203.373 399.837L190.17 399.69L190.379 380.961Z" fill="#F1A1A4"/>
<path d="M216.14 411.324C217.534 411.344 218.76 411.324 219.694 411.246C223.209 410.967 226.575 408.412 228.281 406.92C229.046 406.252 229.299 405.163 228.916 404.229C228.644 403.561 228.086 403.049 227.386 402.835L218.144 400.085L203.247 389.792L203.078 390.091C203.013 390.201 201.509 392.84 200.996 394.63C200.802 395.311 200.841 395.876 201.126 396.317C201.321 396.621 201.593 396.803 201.814 396.913C201.541 397.192 200.685 397.763 198.052 398.152C194.226 398.723 193.454 394.741 193.428 394.572L193.402 394.436L193.292 394.358C191.482 393.158 190.373 392.62 189.984 392.73C189.738 392.795 189.342 392.918 188.136 403.71C188.025 404.047 187.234 406.525 187.727 408.911C188.259 411.506 199.576 410.734 201.833 410.559C201.898 410.565 210.355 411.266 216.153 411.324H216.134L216.14 411.324Z" fill="#2F2E43"/>
<path d="M167.388 408.211C168.938 408.231 170.365 408.055 171.383 407.887C172.382 407.718 173.173 406.933 173.342 405.935C173.472 405.215 173.258 404.495 172.784 403.95L166.403 396.725L159.217 380.109L158.912 380.272C158.802 380.33 156.13 381.776 154.742 383.021C154.216 383.495 153.951 383.994 153.951 384.526C153.951 384.889 154.087 385.188 154.223 385.389C153.84 385.479 152.816 385.505 150.377 384.448C146.829 382.905 148.282 379.117 148.347 378.968L148.399 378.838L148.341 378.722C147.439 376.75 146.778 375.699 146.395 375.583C146.148 375.518 145.753 375.394 139.014 383.916C138.742 384.143 136.758 385.823 135.914 388.106C135 390.59 144.994 395.921 147.018 396.965C147.076 397.017 157.524 404.78 161.817 407.005C163.523 407.887 165.553 408.179 167.401 408.192L167.382 408.211L167.388 408.211Z" fill="#2F2E43"/>
<path d="M182.422 224.185L219.389 224.594L222.359 259.019L206.269 385.927L187.396 385.713L195.756 312.407L164.405 378.332L147.763 366.399L172.356 304.8C172.356 304.8 164.412 250.815 171.273 237.468C178.128 224.12 182.415 224.166 182.415 224.166V224.185L182.422 224.185Z" fill="#2F2E43"/>
<path d="M164.016 226.079L222.729 226.734L205.958 150.633L180.372 150.341L164.016 226.079Z" fill="#24AE97"/>
<path d="M158.283 266.354C157.297 270.965 158.964 275.2 162.006 275.816C165.054 276.439 168.323 273.203 169.302 268.591C169.723 266.756 169.684 264.849 169.185 263.027L181.611 190.798L167.11 187.906L160.683 261.308C159.476 262.787 158.653 264.519 158.283 266.367V266.354Z" fill="#F1A1A4"/>
<path d="M190.289 150.452L180.366 150.341C173.342 151.327 171.396 155.05 169.723 161.944C167.174 172.457 163.912 186.459 164.522 186.673C165.514 187.01 182.298 195.143 190.931 193.418L190.276 150.452L190.289 150.452Z" fill="#24AE97"/>
</g>
<defs>
<clipPath id="clip0_70_6">
<rect width="550.6" height="412.445" fill="white" transform="matrix(-1 0 0 1 550.6 0)"/>
</clipPath>
</defs>
</svg>
